<svg width="226" height="67" viewBox="0 0 226 67" fill="none" xmlns="http://www.w3.org/2000/svg">
<path d="M208.003 0.000217749H18.0074C17.3148 0.000217749 16.6306 0.000217749 15.9399 0.00356774C15.3617 0.00691773 14.7881 0.0166494 14.2043 0.0248402C12.9361 0.0380756 11.6709 0.137025 10.4197 0.320828C9.17024 0.508633 7.95992 0.862699 6.82967 1.37105C5.7008 1.8837 4.66932 2.54984 3.77265 3.3453C2.87127 4.13852 2.11991 5.05538 1.54744 6.06062C0.973395 7.06385 0.57535 8.13891 0.367053 9.24867C0.156776 10.357 0.0436241 11.4782 0.0286126 12.602C0.0110862 13.1156 0.00923535 13.6308 0 14.1444V52.8607C0.00923535 53.3808 0.0110862 53.8846 0.0286126 54.4049C0.0436287 55.5287 0.156781 56.6498 0.367053 57.758C0.574775 58.8685 0.972844 59.9441 1.54744 60.9477C2.11965 61.9497 2.87112 62.8629 3.77265 63.6517C4.66592 64.4507 5.69807 65.1173 6.82967 65.626C7.95991 66.1357 9.1701 66.4919 10.4197 66.6826C11.6711 66.8649 12.9362 66.9639 14.2043 66.9787C14.7881 66.9901 15.3617 66.9967 15.9399 66.9967C16.6306 67 17.3149 67 18.0074 67H208.003C208.682 67 209.371 67 210.05 66.9967C210.626 66.9967 211.216 66.9901 211.791 66.9787C213.057 66.9647 214.32 66.8657 215.568 66.6826C216.822 66.4905 218.037 66.1345 219.172 65.626C220.303 65.117 221.334 64.4504 222.227 63.6517C223.126 62.8598 223.879 61.9473 224.458 60.9477C225.028 59.9434 225.423 58.8678 225.627 57.758C225.838 56.6496 225.955 55.5288 225.978 54.4049C225.985 53.8846 225.985 53.3808 225.985 52.8607C226 52.2522 226 51.647 226 51.0286V15.9732C226 15.3598 226 14.7513 225.985 14.1444C225.985 13.6308 225.985 13.1156 225.978 12.6019C225.955 11.478 225.838 10.3571 225.627 9.2486C225.422 8.13949 225.028 7.06451 224.458 6.06055C223.292 4.04566 221.444 2.40555 219.172 1.3709C218.037 0.86379 216.822 0.509819 215.568 0.320678C214.32 0.136064 213.057 0.0370806 211.791 0.0246057C211.216 0.0164317 210.626 0.00661623 210.05 0.00334999C209.371 0 208.682 0.000217749 208.003 0.000217749Z" fill="#A6A6A6"/>
<path d="M15.9487 65.5344C15.3733 65.5344 14.8118 65.5278 14.2409 65.5164C13.0582 65.5028 11.8783 65.4115 10.7108 65.2432C9.62216 65.077 8.56758 64.7677 7.58182 64.3255C6.60511 63.887 5.71426 63.3121 4.94342 62.6227C4.16142 61.9415 3.51037 61.1513 3.01606 60.2836C2.51631 59.4102 2.17046 58.4741 1.99054 57.5078C1.79625 56.4695 1.69113 55.4196 1.67609 54.3672C1.66411 54.0139 1.64844 52.8377 1.64844 52.8377V14.1444C1.64844 14.1444 1.66513 12.9863 1.67618 12.6461C1.69058 11.5953 1.79509 10.5471 1.9888 9.51037C2.16905 8.54142 2.51518 7.60258 3.01519 6.72636C3.50768 5.85924 4.15512 5.0685 4.93241 4.3848C5.70883 3.6946 6.60252 3.1167 7.5809 2.67217C8.56439 2.23145 9.61697 1.92432 10.7034 1.76107C11.8747 1.59117 13.0587 1.49931 14.2455 1.48627L15.9497 1.46582H210.04L211.765 1.48709C212.941 1.49949 214.114 1.59052 215.275 1.75943C216.372 1.92473 217.436 2.234 218.43 2.67708C220.391 3.57294 221.985 4.99028 222.991 6.73045C223.484 7.60062 223.824 8.5318 224.002 9.49238C224.198 10.5376 224.308 11.5941 224.331 12.6534C224.336 13.1278 224.336 13.6373 224.336 14.1444C224.351 14.7725 224.351 15.3704 224.351 15.9732V51.0286C224.351 51.6371 224.351 52.2309 224.336 52.8295C224.336 53.3742 224.336 53.8732 224.329 54.3868C224.307 55.4272 224.199 56.4649 224.006 57.4914C223.83 58.4646 223.486 59.4081 222.986 60.2886C222.488 61.1469 221.841 61.9302 221.068 62.6097C220.296 63.3027 219.404 63.8811 218.425 64.3223C217.433 64.7679 216.371 65.0783 215.275 65.2432C214.107 65.4124 212.927 65.5037 211.745 65.5164C211.191 65.5278 210.612 65.5344 210.05 65.5344L208.002 65.5377L15.9487 65.5344Z" fill="black"/>
<path d="M45.9719 34.6862C45.9915 33.1648 46.3956 31.6731 47.1466 30.3498C47.8977 29.0266 48.9712 27.9148 50.2673 27.118C49.4439 25.942 48.3577 24.9742 47.0948 24.2915C45.832 23.6088 44.4273 23.2299 42.9924 23.185C39.9316 22.8638 36.9642 25.0166 35.4045 25.0166C33.8145 25.0166 31.4131 23.2169 28.8271 23.2701C27.1544 23.3242 25.5242 23.8106 24.0954 24.682C22.6665 25.5534 21.4878 26.78 20.674 28.2424C17.1488 34.3457 19.7783 43.3156 23.1551 48.2491C24.8447 50.6649 26.8192 53.3634 29.4029 53.2677C31.9312 53.1628 32.8754 51.6555 35.9273 51.6555C38.9508 51.6555 39.8367 53.2677 42.4728 53.2069C45.1857 53.1628 46.895 50.7803 48.5253 48.3417C49.7392 46.6203 50.6733 44.7179 51.293 42.7048C49.7168 42.0381 48.3718 40.9223 47.4255 39.4963C46.4793 38.0704 45.9737 36.3975 45.9719 34.6862Z" fill="white"/>
<path d="M40.9958 20.3626C42.475 18.5868 43.2038 16.3044 43.0273 14C40.7674 14.2374 38.6799 15.3175 37.1807 17.0251C36.4477 17.8593 35.8863 18.8298 35.5286 19.8811C35.1708 20.9324 35.0238 22.0439 35.096 23.1521C36.2263 23.1637 37.3446 22.9187 38.3665 22.4355C39.3885 21.9523 40.2875 21.2435 40.9958 20.3626Z" fill="white"/>
<path d="M83.1906 45.4583H75.2622L73.3582 51.0804H70L77.5097 30.2803H80.9987L88.5084 51.0804H85.0929L83.1906 45.4583ZM76.0833 42.864H82.3679L79.2698 33.7399H79.1831L76.0833 42.864Z" fill="white"/>
<path d="M104.726 43.4991C104.726 48.2117 102.204 51.2394 98.3977 51.2394C97.4335 51.2899 96.4745 51.0678 95.6307 50.5985C94.7868 50.1293 94.0922 49.4319 93.6262 48.5863H93.5542V56.0976H90.4414V35.9159H93.4545V38.4382H93.5117C93.9991 37.5965 94.7055 36.9028 95.5558 36.4307C96.406 35.9586 97.3684 35.7258 98.3404 35.7572C102.189 35.7572 104.726 38.7997 104.726 43.4991ZM101.527 43.4991C101.527 40.4289 99.9402 38.4104 97.5193 38.4104C95.1409 38.4104 93.5412 40.4714 93.5412 43.4991C93.5412 46.5547 95.1409 48.601 97.5193 48.601C99.9402 48.601 101.527 46.5972 101.527 43.4991Z" fill="white"/>
<path d="M121.418 43.4991C121.418 48.2117 118.895 51.2394 115.089 51.2394C114.125 51.2899 113.166 51.0678 112.322 50.5985C111.478 50.1293 110.784 49.4319 110.318 48.5862H110.246V56.0976H107.133V35.9158H110.146V38.4382H110.203C110.69 37.5965 111.397 36.9028 112.247 36.4307C113.097 35.9586 114.06 35.7258 115.032 35.7572C118.881 35.7572 121.418 38.7997 121.418 43.4991ZM118.218 43.4991C118.218 40.4289 116.632 38.4103 114.211 38.4103C111.832 38.4103 110.233 40.4714 110.233 43.4991C110.233 46.5547 111.832 48.601 114.211 48.601C116.632 48.601 118.218 46.5972 118.218 43.4991Z" fill="white"/>
<path d="M132.444 45.2851C132.675 47.3477 134.679 48.7021 137.417 48.7021C140.041 48.7021 141.928 47.3477 141.928 45.4878C141.928 43.8734 140.79 42.9067 138.094 42.2442L135.398 41.5948C131.579 40.6722 129.806 38.886 129.806 35.9875C129.806 32.3986 132.933 29.9336 137.374 29.9336C141.77 29.9336 144.783 32.3986 144.884 35.9875H141.742C141.554 33.9117 139.838 32.6587 137.33 32.6587C134.823 32.6587 133.107 33.9264 133.107 35.7716C133.107 37.2421 134.203 38.1074 136.884 38.7698L139.175 39.3325C143.443 40.3417 145.216 42.056 145.216 45.0985C145.216 48.9899 142.116 51.4271 137.186 51.4271C132.573 51.4271 129.459 49.0471 129.258 45.2849L132.444 45.2851Z" fill="white"/>
<path d="M151.938 32.3267V35.9155H154.822V38.3805H151.938V46.7408C151.938 48.0395 152.515 48.6448 153.783 48.6448C154.125 48.6388 154.467 48.6148 154.807 48.5727V51.0231C154.237 51.1296 153.658 51.1778 153.078 51.167C150.008 51.167 148.81 50.0138 148.81 47.0728V38.3805H146.605V35.9155H148.81V32.3267H151.938Z" fill="white"/>
<path d="M156.492 43.4988C156.492 38.7273 159.302 35.729 163.685 35.729C168.081 35.729 170.878 38.7272 170.878 43.4988C170.878 48.2833 168.096 51.2685 163.685 51.2685C159.274 51.2685 156.492 48.2833 156.492 43.4988ZM167.707 43.4988C167.707 40.2256 166.207 38.2938 163.685 38.2938C161.162 38.2938 159.664 40.2404 159.664 43.4988C159.664 46.7849 161.162 48.702 163.685 48.702C166.207 48.702 167.707 46.7849 167.707 43.4988Z" fill="white"/>
<path d="M173.445 35.9157H176.414V38.4969H176.486C176.687 37.6907 177.159 36.9783 177.824 36.4794C178.488 35.9804 179.304 35.7253 180.134 35.757C180.493 35.7558 180.85 35.7947 181.2 35.8732V38.7848C180.748 38.6464 180.275 38.5829 179.802 38.5967C179.35 38.5783 178.899 38.6581 178.48 38.8304C178.062 39.0027 177.686 39.2636 177.377 39.5951C177.069 39.9265 176.836 40.3207 176.695 40.7507C176.554 41.1806 176.507 41.636 176.558 42.0857V51.0806H173.445L173.445 35.9157Z" fill="white"/>
<path d="M195.551 46.6263C195.132 49.3792 192.451 51.2685 189.021 51.2685C184.609 51.2685 181.871 48.3127 181.871 43.5707C181.871 38.814 184.624 35.729 188.89 35.729C193.086 35.729 195.724 38.6112 195.724 43.2092V44.2757H185.013V44.4638C184.964 45.0219 185.034 45.5842 185.218 46.1132C185.403 46.6422 185.698 47.126 186.084 47.5322C186.47 47.9385 186.937 48.258 187.456 48.4696C187.975 48.6811 188.533 48.7799 189.093 48.7593C189.828 48.8282 190.567 48.6578 191.198 48.2735C191.829 47.8892 192.319 47.3115 192.595 46.6263L195.551 46.6263ZM185.028 42.1002H192.61C192.638 41.5984 192.562 41.0962 192.386 40.6252C192.211 40.1541 191.94 39.7244 191.591 39.363C191.242 39.0016 190.821 38.7163 190.357 38.525C189.892 38.3337 189.393 38.2405 188.89 38.2513C188.383 38.2483 187.881 38.3457 187.412 38.5379C186.943 38.7301 186.516 39.0132 186.157 39.3711C185.798 39.7289 185.513 40.1543 185.32 40.6227C185.126 41.0911 185.027 41.5933 185.028 42.1002Z" fill="white"/>
<path d="M75.6882 14.6241C76.3408 14.5773 76.9956 14.6759 77.6055 14.9128C78.2154 15.1497 78.7651 15.519 79.215 15.9941C79.6649 16.4691 80.0037 17.0381 80.2071 17.66C80.4104 18.2819 80.4732 18.9411 80.3909 19.5902C80.3909 22.7832 78.6652 24.6186 75.6882 24.6186H72.0781V14.6241H75.6882ZM73.6304 23.2051H75.5148C75.9811 23.233 76.4478 23.1565 76.8808 22.9813C77.3139 22.8061 77.7024 22.5365 78.0182 22.1922C78.3339 21.8479 78.5689 21.4375 78.706 20.9909C78.8431 20.5443 78.8789 20.0728 78.8108 19.6106C78.874 19.1502 78.8345 18.6816 78.6953 18.2383C78.5561 17.795 78.3205 17.388 78.0055 17.0464C77.6905 16.7048 77.3038 16.4371 76.8732 16.2625C76.4426 16.0879 75.9787 16.0108 75.5148 16.0365H73.6304V23.2051Z" fill="white"/>
<path d="M82.1457 20.8441C82.0983 20.3484 82.155 19.8483 82.3122 19.3759C82.4694 18.9034 82.7236 18.469 83.0585 18.1005C83.3934 17.7321 83.8016 17.4377 84.2569 17.2362C84.7123 17.0347 85.2047 16.9307 85.7026 16.9307C86.2006 16.9307 86.693 17.0347 87.1483 17.2362C87.6037 17.4377 88.0119 17.7321 88.3468 18.1005C88.6817 18.469 88.9359 18.9034 89.0931 19.3759C89.2503 19.8483 89.307 20.3484 89.2596 20.8441C89.3079 21.3403 89.2518 21.841 89.0951 22.3143C88.9383 22.7875 88.6843 23.2227 88.3493 23.5919C88.0143 23.9611 87.6058 24.2561 87.15 24.458C86.6942 24.6599 86.2012 24.7642 85.7026 24.7642C85.2041 24.7642 84.7111 24.6599 84.2553 24.458C83.7995 24.2561 83.391 23.9611 83.056 23.5919C82.721 23.2227 82.467 22.7875 82.3102 22.3143C82.1534 21.841 82.0974 21.3403 82.1457 20.8441ZM87.7285 20.8441C87.7285 19.2092 86.994 18.2531 85.7051 18.2531C84.4112 18.2531 83.6834 19.2092 83.6834 20.8441C83.6834 22.4921 84.4113 23.4408 85.7051 23.4408C86.9941 23.4408 87.7285 22.4855 87.7285 20.8441Z" fill="white"/>
<path d="M98.7135 24.6186H97.1694L95.6106 19.0636H95.4928L93.9405 24.6186H92.4111L90.332 17.0762H91.8418L93.1929 22.8315H93.3042L94.8549 17.0762H96.2829L97.8335 22.8315H97.9513L99.2959 17.0762H100.784L98.7135 24.6186Z" fill="white"/>
<path d="M102.535 17.0764H103.968V18.2745H104.079C104.268 17.8442 104.586 17.4834 104.99 17.2426C105.393 17.0017 105.862 16.8927 106.33 16.9308C106.697 16.9032 107.066 16.9585 107.408 17.0927C107.751 17.2268 108.059 17.4364 108.31 17.7058C108.561 17.9752 108.747 18.2976 108.857 18.649C108.966 19.0005 108.995 19.372 108.941 19.736V24.6187H107.452V20.1098C107.452 18.8978 106.925 18.295 105.825 18.295C105.575 18.2834 105.327 18.3258 105.095 18.4193C104.864 18.5128 104.656 18.6552 104.485 18.8368C104.314 19.0183 104.184 19.2347 104.104 19.4711C104.025 19.7075 103.997 19.9583 104.024 20.2063V24.6187H102.535L102.535 17.0764Z" fill="white"/>
<path d="M111.309 14.1318H112.797V24.6185H111.309V14.1318Z" fill="white"/>
<path d="M114.864 20.8442C114.817 20.3485 114.874 19.8484 115.031 19.3759C115.188 18.9034 115.442 18.469 115.777 18.1005C116.112 17.7321 116.521 17.4377 116.976 17.2362C117.431 17.0347 117.924 16.9307 118.422 16.9307C118.92 16.9307 119.412 17.0347 119.868 17.2362C120.323 17.4377 120.731 17.7321 121.066 18.1005C121.401 18.469 121.655 18.9034 121.813 19.3759C121.97 19.8484 122.026 20.3485 121.979 20.8442C122.027 21.3404 121.971 21.8412 121.814 22.3144C121.658 22.7877 121.404 23.2228 121.069 23.592C120.734 23.9612 120.325 24.2562 119.869 24.4581C119.413 24.66 118.92 24.7643 118.422 24.7643C117.923 24.7643 117.43 24.66 116.974 24.4581C116.519 24.2562 116.11 23.9612 115.775 23.592C115.44 23.2228 115.186 22.7877 115.029 22.3144C114.872 21.8412 114.816 21.3404 114.864 20.8442ZM120.447 20.8442C120.447 19.2093 119.713 18.2532 118.424 18.2532C117.13 18.2532 116.402 19.2093 116.402 20.8442C116.402 22.4923 117.13 23.441 118.424 23.441C119.713 23.441 120.447 22.4857 120.447 20.8442Z" fill="white"/>
<path d="M123.551 22.4856C123.551 21.128 124.562 20.3453 126.356 20.234L128.399 20.1163V19.4652C128.399 18.6686 127.872 18.2188 126.855 18.2188C126.024 18.2188 125.448 18.5239 125.283 19.0571H123.842C123.994 17.7616 125.213 16.9307 126.924 16.9307C128.815 16.9307 129.881 17.872 129.881 19.4652V24.6186H128.448V23.5587H128.33C128.091 23.9389 127.756 24.2488 127.358 24.4569C126.96 24.6649 126.514 24.7636 126.065 24.7429C125.748 24.7758 125.428 24.742 125.125 24.6437C124.823 24.5454 124.544 24.3847 124.307 24.1721C124.07 23.9594 123.88 23.6994 123.75 23.409C123.62 23.1185 123.552 22.804 123.551 22.4856ZM128.399 21.8411V21.2106L126.557 21.3283C125.519 21.3978 125.047 21.7512 125.047 22.4161C125.047 23.0949 125.636 23.4899 126.446 23.4899C126.683 23.514 126.923 23.49 127.151 23.4195C127.379 23.349 127.59 23.2334 127.772 23.0796C127.954 22.9257 128.104 22.7368 128.211 22.5241C128.319 22.3113 128.383 22.0791 128.399 21.8411Z" fill="white"/>
<path d="M131.836 20.8441C131.836 18.4608 133.061 16.9511 134.967 16.9511C135.438 16.9293 135.906 17.0422 136.316 17.2766C136.725 17.5109 137.059 17.8569 137.28 18.2743H137.391V14.1318H138.879V24.6185H137.453V23.4269H137.335C137.098 23.8414 136.752 24.1832 136.335 24.4152C135.917 24.6471 135.444 24.7604 134.967 24.7428C133.048 24.7429 131.836 23.2331 131.836 20.8441ZM133.374 20.8441C133.374 22.4439 134.128 23.4065 135.389 23.4065C136.643 23.4065 137.419 22.43 137.419 20.8507C137.419 19.2787 136.635 18.2883 135.389 18.2883C134.136 18.2883 133.374 19.2574 133.374 20.8441Z" fill="white"/>
<path d="M145.044 20.8441C144.997 20.3484 145.053 19.8483 145.211 19.3759C145.368 18.9034 145.622 18.469 145.957 18.1005C146.292 17.7321 146.7 17.4377 147.155 17.2362C147.611 17.0347 148.103 16.9307 148.601 16.9307C149.099 16.9307 149.591 17.0347 150.047 17.2362C150.502 17.4377 150.91 17.7321 151.245 18.1005C151.58 18.469 151.834 18.9034 151.992 19.3759C152.149 19.8483 152.205 20.3484 152.158 20.8441C152.206 21.3403 152.15 21.841 151.994 22.3143C151.837 22.7875 151.583 23.2227 151.248 23.5919C150.913 23.9611 150.504 24.2561 150.048 24.458C149.593 24.6599 149.1 24.7642 148.601 24.7642C148.103 24.7642 147.61 24.6599 147.154 24.458C146.698 24.2561 146.289 23.9611 145.954 23.5919C145.619 23.2227 145.365 22.7875 145.209 22.3143C145.052 21.841 144.996 21.3403 145.044 20.8441ZM150.627 20.8441C150.627 19.2092 149.892 18.2531 148.604 18.2531C147.31 18.2531 146.582 19.2092 146.582 20.8441C146.582 22.4921 147.31 23.4408 148.604 23.4408C149.892 23.4408 150.627 22.4855 150.627 20.8441Z" fill="white"/>
<path d="M154.152 17.0764H155.585V18.2745H155.696C155.885 17.8442 156.203 17.4834 156.607 17.2426C157.01 17.0017 157.479 16.8927 157.947 16.9308C158.314 16.9032 158.683 16.9585 159.025 17.0927C159.368 17.2268 159.676 17.4364 159.927 17.7058C160.178 17.9752 160.365 18.2976 160.474 18.649C160.583 19.0005 160.612 19.372 160.558 19.736V24.6187H159.069V20.1098C159.069 18.8978 158.543 18.295 157.442 18.295C157.193 18.2834 156.944 18.3258 156.713 18.4193C156.481 18.5128 156.273 18.6552 156.102 18.8368C155.931 19.0183 155.801 19.2347 155.722 19.4711C155.642 19.7075 155.614 19.9583 155.641 20.2063V24.6187H154.152V17.0764Z" fill="white"/>
<path d="M168.965 15.1982V17.1104H170.599V18.3642H168.965V22.2425C168.965 23.0326 169.29 23.3786 170.031 23.3786C170.221 23.378 170.411 23.3665 170.599 23.3442V24.5841C170.332 24.6319 170.061 24.6574 169.789 24.6602C168.134 24.6602 167.475 24.0778 167.475 22.6237V18.3641H166.277V17.1103H167.475V15.1982H168.965Z" fill="white"/>
<path d="M172.637 14.1318H174.112V18.2883H174.23C174.428 17.8539 174.755 17.4911 175.166 17.2493C175.578 17.0075 176.054 16.8985 176.53 16.9371C176.895 16.9173 177.26 16.9782 177.599 17.1156C177.937 17.2531 178.242 17.4636 178.49 17.7321C178.738 18.0007 178.924 18.3207 179.034 18.6693C179.144 19.0179 179.176 19.3866 179.127 19.749V24.6186H177.637V20.1162C177.637 18.9114 177.076 18.3013 176.024 18.3013C175.769 18.2803 175.511 18.3155 175.27 18.4044C175.03 18.4932 174.811 18.6336 174.63 18.8158C174.449 18.9979 174.31 19.2174 174.223 19.4588C174.136 19.7002 174.103 19.9578 174.125 20.2135V24.6185H172.637L172.637 14.1318Z" fill="white"/>
<path d="M187.804 22.5823C187.602 23.2716 187.164 23.8679 186.566 24.2668C185.969 24.6657 185.25 24.8418 184.536 24.7643C184.039 24.7774 183.545 24.6823 183.089 24.4854C182.632 24.2885 182.224 23.9947 181.893 23.6243C181.561 23.2539 181.314 22.8158 181.169 22.3404C181.024 21.865 180.984 21.3637 181.052 20.8713C180.986 20.3774 181.026 19.875 181.171 19.3981C181.316 18.9213 181.562 18.4812 181.891 18.1075C182.221 17.7339 182.627 17.4355 183.082 17.2324C183.538 17.0294 184.031 16.9265 184.529 16.9308C186.628 16.9308 187.894 18.3646 187.894 20.733V21.2524H182.568V21.3358C182.545 21.6126 182.58 21.8912 182.67 22.1538C182.761 22.4163 182.905 22.6571 183.094 22.8605C183.284 23.0639 183.513 23.2256 183.768 23.3351C184.024 23.4447 184.299 23.4997 184.577 23.4966C184.933 23.5393 185.293 23.4752 185.613 23.3124C185.933 23.1496 186.196 22.8954 186.371 22.5822L187.804 22.5823ZM182.568 20.1516H186.378C186.396 19.8984 186.362 19.6442 186.277 19.4051C186.191 19.166 186.057 18.9475 185.882 18.7635C185.707 18.5795 185.496 18.4341 185.261 18.3366C185.027 18.2392 184.775 18.1919 184.521 18.1977C184.264 18.1944 184.008 18.2428 183.77 18.3398C183.531 18.4369 183.315 18.5807 183.133 18.7628C182.951 18.9449 182.807 19.1616 182.71 19.4001C182.613 19.6386 182.565 19.8941 182.568 20.1516Z" fill="white"/>
</svg>
