<svg width="227" height="67" viewBox="0 0 227 67" fill="none" xmlns="http://www.w3.org/2000/svg">
<path d="M217.75 67H8.375C3.76875 67 0 63.2313 0 58.625V8.375C0 3.76875 3.76875 0 8.375 0H217.75C222.356 0 226.125 3.76875 226.125 8.375V58.625C226.125 63.2313 222.356 67 217.75 67Z" fill="#100F0D"/>
<path d="M217.75 0H8.375C3.76875 0 0 3.76875 0 8.375V58.625C0 63.2313 3.76875 67 8.375 67H217.75C222.356 67 226.125 63.2313 226.125 58.625V8.375C226.125 3.76875 222.356 0 217.75 0ZM217.75 1.33932C221.629 1.33932 224.785 4.4957 224.785 8.375V58.625C224.785 62.5043 221.629 65.6607 217.75 65.6607H8.375C4.49567 65.6607 1.34065 62.5043 1.34065 58.625V8.375C1.34065 4.4957 4.49567 1.33932 8.375 1.33932H217.75Z" fill="#A2A2A1"/>
<path d="M76.9592 14.5396C76.8495 14.204 76.705 13.9033 76.5255 13.6374C76.3494 13.3683 76.1384 13.139 75.8925 12.9496C75.6499 12.7602 75.3741 12.6156 75.065 12.5159C74.756 12.4162 74.417 12.3664 74.0482 12.3664C73.4434 12.3664 72.8934 12.5226 72.3983 12.8349C71.9032 13.1473 71.5094 13.6075 71.217 14.2156C70.9245 14.8238 70.7783 15.5698 70.7783 16.4537C70.7783 17.3376 70.9262 18.0837 71.2219 18.6918C71.5177 19.2999 71.9181 19.7601 72.4232 20.0725C72.9283 20.3849 73.4966 20.541 74.1279 20.541C74.7128 20.541 75.2279 20.4164 75.6732 20.1672C76.1218 19.9147 76.4707 19.5591 76.7199 19.1005C76.9725 18.6386 77.0987 18.0953 77.0987 17.4706L77.4776 17.5503H74.4071V16.4537H78.295V17.5503C78.295 18.391 78.1156 19.1221 77.7567 19.7435C77.4011 20.3649 76.9093 20.8468 76.2813 21.189C75.6565 21.528 74.9388 21.6975 74.1279 21.6975C73.2241 21.6975 72.4299 21.4848 71.7453 21.0594C71.0641 20.6341 70.5324 20.0293 70.1503 19.2451C69.7714 18.4608 69.582 17.5304 69.582 16.4537C69.582 15.6462 69.69 14.9201 69.906 14.2755C70.1253 13.6275 70.4344 13.0758 70.8332 12.6206C71.2319 12.1653 71.7038 11.8164 72.2488 11.5738C72.7937 11.3313 73.3936 11.21 74.0482 11.21C74.5865 11.21 75.0883 11.2914 75.5535 11.4542C76.0221 11.6137 76.4391 11.8413 76.8046 12.1371C77.1735 12.4295 77.4809 12.7801 77.7268 13.1888C77.9727 13.5942 78.1422 14.0445 78.2352 14.5396H76.9592Z" fill="white"/>
<path d="M80.4122 21.5579V11.3495H86.5731V12.4461H81.6484V15.8954H86.2541V16.992H81.6484V20.4613H86.6529V21.5579H80.4122Z" fill="white"/>
<path d="M88.243 12.4461V11.3495H95.8992V12.4461H92.6892V21.5579H91.453V12.4461H88.243Z" fill="white"/>
<path d="M102.991 11.3495V21.5579H101.755V11.3495H102.991Z" fill="white"/>
<path d="M104.911 12.4461V11.3495H112.568V12.4461H109.358V21.5579H108.121V12.4461H104.911Z" fill="white"/>
<path d="M127.036 16.4537C127.036 17.5304 126.842 18.4608 126.453 19.2451C126.064 20.0293 125.531 20.6341 124.853 21.0594C124.175 21.4848 123.401 21.6975 122.53 21.6975C121.66 21.6975 120.886 21.4848 120.208 21.0594C119.53 20.6341 118.996 20.0293 118.608 19.2451C118.219 18.4608 118.024 17.5304 118.024 16.4537C118.024 15.377 118.219 14.4466 118.608 13.6624C118.996 12.8781 119.53 12.2733 120.208 11.848C120.886 11.4226 121.66 11.21 122.53 11.21C123.401 11.21 124.175 11.4226 124.853 11.848C125.531 12.2733 126.064 12.8781 126.453 13.6624C126.842 14.4466 127.036 15.377 127.036 16.4537ZM125.84 16.4537C125.84 15.5698 125.692 14.8238 125.397 14.2156C125.104 13.6075 124.707 13.1473 124.205 12.8349C123.707 12.5226 123.149 12.3664 122.53 12.3664C121.912 12.3664 121.352 12.5226 120.851 12.8349C120.352 13.1473 119.955 13.6075 119.659 14.2156C119.367 14.8238 119.221 15.5698 119.221 16.4537C119.221 17.3376 119.367 18.0837 119.659 18.6918C119.955 19.2999 120.352 19.7601 120.851 20.0725C121.352 20.3849 121.912 20.541 122.53 20.541C123.149 20.541 123.707 20.3849 124.205 20.0725C124.707 19.7601 125.104 19.2999 125.397 18.6918C125.692 18.0837 125.84 17.3376 125.84 16.4537Z" fill="white"/>
<path d="M137.21 11.3495V21.5579H136.014L130.451 13.5427H130.351V21.5579H129.115V11.3495H130.311L135.894 19.3846H135.994V11.3495H137.21Z" fill="white"/>
<path d="M179.12 50.2501H182.245V29.3099H179.12V50.2501ZM207.271 36.8534L203.688 45.9317H203.581L199.863 36.8534H196.496L202.074 49.5415L198.893 56.6H202.152L210.747 36.8534H207.271ZM189.545 47.8717C188.523 47.8717 187.094 47.3593 187.094 46.0934C187.094 44.4772 188.873 43.8576 190.407 43.8576C191.781 43.8576 192.429 44.1534 193.263 44.5577C193.02 46.4977 191.35 47.8717 189.545 47.8717ZM189.923 36.3953C187.66 36.3953 185.317 37.3924 184.347 39.6014L187.121 40.7595C187.714 39.6014 188.818 39.2245 189.977 39.2245C191.593 39.2245 193.236 40.1935 193.263 41.9183V42.1335C192.697 41.8102 191.484 41.3255 190.004 41.3255C187.012 41.3255 183.969 42.9683 183.969 46.0396C183.969 48.8414 186.421 50.6466 189.168 50.6466C191.268 50.6466 192.429 49.7037 193.154 48.5987H193.263V50.216H196.282V42.1871C196.282 38.4694 193.504 36.3953 189.923 36.3953ZM170.607 39.4024H166.162V32.2249H170.607C172.944 32.2249 174.27 34.159 174.27 35.8136C174.27 37.4363 172.944 39.4024 170.607 39.4024ZM170.527 29.3099H163.038V50.2501H166.162V42.3167H170.527C173.991 42.3167 177.396 39.8094 177.396 35.8136C177.396 31.8185 173.991 29.3099 170.527 29.3099ZM129.688 47.8756C127.529 47.8756 125.722 46.0671 125.722 43.5854C125.722 41.0749 127.529 39.2408 129.688 39.2408C131.82 39.2408 133.493 41.0749 133.493 43.5854C133.493 46.0671 131.82 47.8756 129.688 47.8756ZM133.277 38.0259H133.169C132.467 37.1896 131.118 36.434 129.418 36.434C125.856 36.434 122.591 39.5647 122.591 43.5854C122.591 47.5786 125.856 50.6819 129.418 50.6819C131.118 50.6819 132.467 49.9261 133.169 49.0631H133.277V50.0877C133.277 52.8142 131.82 54.2707 129.472 54.2707C127.557 54.2707 126.369 52.8947 125.883 51.7347L123.158 52.8679C123.94 54.7562 126.017 57.0776 129.472 57.0776C133.143 57.0776 136.246 54.9185 136.246 49.6559V36.8658H133.277V38.0259ZM138.405 50.2501H141.534V29.3099H138.405V50.2501ZM146.149 43.342C146.068 40.5893 148.282 39.1865 149.873 39.1865C151.115 39.1865 152.166 39.8074 152.518 40.6974L146.149 43.342ZM155.863 40.9669C155.27 39.3756 153.462 36.434 149.765 36.434C146.094 36.434 143.045 39.3213 143.045 43.5579C143.045 47.5518 146.068 50.6819 150.115 50.6819C153.38 50.6819 155.27 48.6856 156.053 47.5248L153.624 45.9054C152.814 47.093 151.708 47.8756 150.115 47.8756C148.524 47.8756 147.39 47.1468 146.662 45.7165L156.187 41.7769L155.863 40.9669ZM79.9726 38.6199V41.6421H87.2044C86.9885 43.342 86.4219 44.5832 85.5582 45.4468C84.5055 46.4989 82.8593 47.6597 79.9726 47.6597C75.52 47.6597 72.0391 44.0708 72.0391 39.6183C72.0391 35.1658 75.52 31.5765 79.9726 31.5765C82.3744 31.5765 84.128 32.5212 85.4234 33.7356L87.5558 31.6033C85.7473 29.8765 83.3461 28.5543 79.9726 28.5543C73.8731 28.5543 68.7461 33.5196 68.7461 39.6183C68.7461 45.7165 73.8731 50.6819 79.9726 50.6819C83.2643 50.6819 85.7473 49.6023 87.69 47.5786C89.6869 45.5817 90.3079 42.7754 90.3079 40.5083C90.3079 39.8074 90.2534 39.1597 90.1456 38.6199H79.9726ZM98.5298 47.8756C96.3705 47.8756 94.5084 46.0945 94.5084 43.5579C94.5084 40.9943 96.3705 39.2408 98.5298 39.2408C100.688 39.2408 102.55 40.9943 102.55 43.5579C102.55 46.0945 100.688 47.8756 98.5298 47.8756ZM98.5298 36.434C94.5888 36.434 91.3782 39.4292 91.3782 43.5579C91.3782 47.6597 94.5888 50.6819 98.5298 50.6819C102.469 50.6819 105.681 47.6597 105.681 43.5579C105.681 39.4292 102.469 36.434 98.5298 36.434ZM114.129 47.8756C111.971 47.8756 110.108 46.0945 110.108 43.5579C110.108 40.9943 111.971 39.2408 114.129 39.2408C116.288 39.2408 118.149 40.9943 118.149 43.5579C118.149 46.0945 116.288 47.8756 114.129 47.8756ZM114.129 36.434C110.189 36.434 106.979 39.4292 106.979 43.5579C106.979 47.6597 110.189 50.6819 114.129 50.6819C118.07 50.6819 121.28 47.6597 121.28 43.5579C121.28 39.4292 118.07 36.434 114.129 36.434Z" fill="white"/>
<path d="M34.7001 32.5358L16.8672 51.4633C16.8679 51.4672 16.8692 51.4705 16.8699 51.4744C17.4168 53.5296 19.2939 55.043 21.5218 55.043C22.4124 55.043 23.2486 54.8022 23.9657 54.3795L24.0226 54.3461L44.0958 42.7632L34.7001 32.5358Z" fill="#EB3131"/>
<path d="M52.7435 29.3123L52.7264 29.3006L44.0603 24.2768L34.2969 32.9647L44.0943 42.7607L52.7147 37.7868C54.226 36.9709 55.252 35.3777 55.252 33.5404C55.252 31.7163 54.2398 30.1309 52.7435 29.3123Z" fill="#F6B60B"/>
<path d="M16.8667 15.5393C16.7595 15.9346 16.7031 16.3487 16.7031 16.7786V50.2244C16.7031 50.6535 16.7588 51.069 16.8673 51.4629L35.3139 33.0196L16.8667 15.5393Z" fill="#5778C5"/>
<path d="M34.8322 33.5015L44.0625 24.2739L24.0121 12.6491C23.2833 12.2126 22.4327 11.9606 21.5225 11.9606C19.2946 11.9606 17.4149 13.4767 16.8679 15.5344C16.8672 15.5364 16.8672 15.5378 16.8672 15.5396L34.8322 33.5015Z" fill="#3BAD49"/>
</svg>
