<svg width="124" height="124" viewBox="0 0 124 124" fill="none" xmlns="http://www.w3.org/2000/svg">
<g filter="url(#filter0_d_2404_68)">
<path d="M62 108C34.385 108 12 85.615 12 58C12 30.385 34.385 8 62 8C89.615 8 112 30.385 112 58C112 85.615 89.615 108 62 108ZM62 98C72.6087 98 82.7828 93.7857 90.2843 86.2843C97.7857 78.7828 102 68.6087 102 58C102 47.3913 97.7857 37.2172 90.2843 29.7157C82.7828 22.2143 72.6087 18 62 18C51.3913 18 41.2172 22.2143 33.7157 29.7157C26.2143 37.2172 22 47.3913 22 58C22 68.6087 26.2143 78.7828 33.7157 86.2843C41.2172 93.7857 51.3913 98 62 98ZM55.11 40.075L79.505 56.335C79.7793 56.5176 80.0043 56.7651 80.1599 57.0556C80.3155 57.346 80.3969 57.6705 80.3969 58C80.3969 58.3295 80.3155 58.654 80.1599 58.9444C80.0043 59.2349 79.7793 59.4824 79.505 59.665L55.105 75.925C54.8041 76.1244 54.4549 76.2387 54.0944 76.2558C53.7338 76.2728 53.3754 76.1919 53.057 76.0217C52.7387 75.8516 52.4724 75.5984 52.2863 75.2891C52.1002 74.9798 52.0013 74.626 52 74.265V41.735C52.0007 41.3733 52.0994 41.0185 52.2858 40.7084C52.4721 40.3984 52.7391 40.1446 53.0582 39.9743C53.3774 39.804 53.7367 39.7234 54.098 39.7411C54.4593 39.7588 54.8091 39.8742 55.11 40.075Z" fill="white"/>
</g>
<defs>
<filter id="filter0_d_2404_68" x="0" y="0" width="124" height="124" filterUnits="userSpaceOnUse" color-interpolation-filters="sRGB">
<feFlood flood-opacity="0" result="BackgroundImageFix"/>
<feColorMatrix in="SourceAlpha" type="matrix" values="0 0 0 0 0 0 0 0 0 0 0 0 0 0 0 0 0 0 127 0" result="hardAlpha"/>
<feOffset dy="4"/>
<feGaussianBlur stdDeviation="6"/>
<feComposite in2="hardAlpha" operator="out"/>
<feColorMatrix type="matrix" values="0 0 0 0 0.160784 0 0 0 0 0.670588 0 0 0 0 1 0 0 0 0.4 0"/>
<feBlend mode="normal" in2="BackgroundImageFix" result="effect1_dropShadow_2404_68"/>
<feBlend mode="normal" in="SourceGraphic" in2="effect1_dropShadow_2404_68" result="shape"/>
</filter>
</defs>
</svg>
