<svg width="482" height="99" viewBox="0 0 482 99" fill="none" xmlns="http://www.w3.org/2000/svg">
<g filter="url(#filter0_d_2413_81)">
<path d="M18.4927 2.24023C21.2127 2.24023 23.0527 2.68023 24.0127 3.56024C25.0527 4.44024 25.7727 6.28024 26.1727 9.08024L34.0927 72.9202C34.3327 74.8402 34.8527 76.0802 35.6527 76.6402C36.4527 77.2002 37.7327 77.5202 39.4927 77.6002L39.3727 89.0002H34.0927C27.0527 89.0002 22.4127 87.2802 20.1727 83.8402C18.9727 82.0002 18.1327 80.2002 17.6527 78.4402C17.1727 76.6002 16.7327 74.0402 16.3327 70.7602L6.97266 2.24023H18.4927ZM49.8127 89.0002H42.3727L55.4527 9.08024C55.7727 6.36024 56.4527 4.56024 57.4927 3.68024C58.5327 2.72023 60.4127 2.24023 63.1327 2.24023H74.5327L62.5327 73.1602C61.9727 76.2002 61.4927 78.4402 61.0927 79.8802C60.7727 81.3202 60.1727 82.8802 59.2927 84.5602C58.4127 86.2402 57.2127 87.4002 55.6927 88.0402C54.1727 88.6802 52.2127 89.0002 49.8127 89.0002Z" fill="white"/>
<path d="M120.169 89.0002H107.569C104.849 89.0002 103.049 88.5602 102.169 87.6802C101.369 86.8002 100.969 84.9602 100.969 82.1602V9.08024C100.969 6.28024 101.369 4.44024 102.169 3.56024C103.049 2.68023 104.849 2.24023 107.569 2.24023H120.169V89.0002Z" fill="white"/>
<path d="M159.497 2.24023C162.217 2.24023 164.057 2.68023 165.017 3.56024C166.057 4.44024 166.777 6.28024 167.177 9.08024L175.097 72.9202C175.337 74.8402 175.857 76.0802 176.657 76.6402C177.457 77.2002 178.737 77.5202 180.497 77.6002L180.377 89.0002H175.097C168.057 89.0002 163.417 87.2802 161.177 83.8402C159.977 82.0002 159.137 80.2002 158.657 78.4402C158.177 76.6002 157.737 74.0402 157.337 70.7602L147.977 2.24023H159.497ZM190.817 89.0002H183.377L196.457 9.08024C196.777 6.36024 197.457 4.56024 198.497 3.68024C199.537 2.72023 201.417 2.24023 204.137 2.24023H215.537L203.537 73.1602C202.977 76.2002 202.497 78.4402 202.097 79.8802C201.777 81.3202 201.177 82.8802 200.297 84.5602C199.417 86.2402 198.217 87.4002 196.697 88.0402C195.177 88.6802 193.217 89.0002 190.817 89.0002Z" fill="white"/>
<path d="M274.254 13.6402H263.094C261.814 13.6402 261.174 13.9602 261.174 14.6002V89.0002H248.574C245.854 89.0002 244.054 88.5602 243.174 87.6802C242.374 86.8002 241.974 84.9602 241.974 82.1602V9.08024C241.974 6.28024 242.374 4.44024 243.174 3.56024C244.054 2.68023 245.854 2.24023 248.574 2.24023H274.254V13.6402ZM279.054 2.24023H291.654C294.374 2.24023 296.134 2.68023 296.934 3.56024C297.814 4.44024 298.254 6.28024 298.254 9.08024V82.0402C298.254 84.8402 297.814 86.7202 296.934 87.6802C296.054 88.5602 294.294 89.0002 291.654 89.0002H279.054V48.8002H265.974V37.4002H279.054V2.24023Z" fill="white"/>
<path d="M351.573 89.0002H350.133C346.933 89.0002 344.253 88.7602 342.093 88.2802C340.013 87.8002 338.173 86.8402 336.573 85.4002C335.053 83.8802 333.853 82.2002 332.973 80.3602C332.173 78.5202 331.533 75.7602 331.053 72.0802C330.333 66.5602 329.973 59.1602 329.973 49.8802C329.973 40.5202 330.013 33.9202 330.093 30.0802C330.253 26.2402 330.573 22.5202 331.053 18.9202C331.533 15.2402 332.173 12.5202 332.973 10.7602C333.853 8.92024 335.053 7.28024 336.573 5.84024C338.173 4.32024 340.013 3.36024 342.093 2.96024C344.253 2.48024 346.933 2.24023 350.133 2.24023H351.573V89.0002ZM356.373 2.24023H371.613C377.453 2.24023 381.853 3.24024 384.813 5.24024C387.853 7.24024 389.373 10.7202 389.373 15.6802V26.4802C389.373 28.1602 388.813 29.0002 387.693 29.0002H372.573C371.453 29.0002 370.773 28.8402 370.533 28.5202C370.293 28.2002 370.173 27.5202 370.173 26.4802V17.1202C370.173 15.8402 369.973 14.9602 369.573 14.4802C369.253 13.9202 368.373 13.6402 366.933 13.6402H356.373V2.24023ZM372.573 62.2402H387.693C388.813 62.2402 389.373 63.0802 389.373 64.7602V75.5602C389.373 80.5202 387.853 84.0002 384.813 86.0002C381.853 88.0002 377.453 89.0002 371.613 89.0002H356.373V77.6002H366.933C368.373 77.6002 369.253 77.3602 369.573 76.8802C369.973 76.3202 370.173 75.4002 370.173 74.1202V64.7602C370.173 63.7202 370.293 63.0402 370.533 62.7202C370.773 62.4002 371.453 62.2402 372.573 62.2402Z" fill="white"/>
<path d="M438.858 89.0002H426.258C423.538 89.0002 421.738 88.5602 420.858 87.6802C420.058 86.8002 419.658 84.9602 419.658 82.1602V9.08024C419.658 6.28024 420.058 4.44024 420.858 3.56024C421.738 2.68023 423.538 2.24023 426.258 2.24023H438.858V89.0002ZM475.938 72.2002V82.4002C475.938 85.1202 475.498 86.9202 474.618 87.8002C473.738 88.6002 471.898 89.0002 469.098 89.0002H443.658V72.2002H475.938ZM468.738 36.8002V44.0002C468.738 46.8802 468.458 48.7202 467.898 49.5202C467.338 50.2402 465.738 50.6002 463.098 50.6002H443.658V36.8002H468.738ZM474.738 2.24023V12.4402C474.738 15.1602 474.298 16.9602 473.418 17.8402C472.538 18.6402 470.698 19.0402 467.898 19.0402H443.658V2.24023H474.738Z" fill="white"/>
</g>
<g filter="url(#filter1_d_2413_81)">
<path fill-rule="evenodd" clip-rule="evenodd" d="M18.4915 2.24023C21.2115 2.24023 23.0515 2.68024 24.0115 3.56024C25.0515 4.44024 25.7715 6.28024 26.1715 9.08024L34.0915 72.9202C34.3315 74.8402 34.8515 76.0802 35.6515 76.6402C36.4515 77.2002 37.7315 77.5202 39.4915 77.6002L39.3715 89.0002H34.0915C27.0515 89.0002 22.4115 87.2802 20.1715 83.8402C18.9715 82.0002 18.1315 80.2002 17.6515 78.4402C17.1715 76.6002 16.7315 74.0402 16.3315 70.7602L6.97147 2.24023H18.4915ZM14.3479 71.0168L4.67969 0.240234H18.4915C19.9462 0.240234 21.2539 0.356609 22.3766 0.625078C23.4741 0.887522 24.5189 1.32481 25.3334 2.05907C26.964 3.46116 27.747 5.96701 28.1514 8.7974L28.154 8.81568L36.076 72.6722C36.0761 72.6724 36.076 72.6719 36.076 72.6722C36.1824 73.5229 36.3397 74.1206 36.5059 74.5168C36.6728 74.9149 36.8038 75.0056 36.7984 75.0018C37.1258 75.2309 37.9381 75.5276 39.5823 75.6023L41.5117 75.69L41.4422 82.2957L53.4706 8.80089C53.799 6.05041 54.5326 3.58869 56.1665 2.18168C57.7944 0.703173 60.3325 0.240234 63.1315 0.240234H76.8983L64.501 73.5083L64.4984 73.5226C63.9425 76.5403 63.4541 78.8359 63.0322 80.3659C62.6625 82.003 61.9931 83.7129 61.0631 85.4883C60.0017 87.5146 58.4788 89.0367 56.4676 89.8835C54.6168 90.6628 52.3668 91.0002 49.8115 91.0002H34.0915C26.8607 91.0002 21.3089 89.2509 18.4962 84.9328C17.205 82.9528 16.2666 80.9635 15.7219 78.9665L15.719 78.9558L15.7162 78.9451C15.2039 76.9812 14.7517 74.3243 14.3479 71.0168ZM61.0915 79.8802C61.4915 78.4402 61.9715 76.2002 62.5315 73.1602L74.5315 2.24023H63.1315C60.4115 2.24023 58.5315 2.72023 57.4915 3.68024C56.4515 4.56023 55.7715 6.36024 55.4515 9.08024L42.3715 89.0002H49.8115C52.2115 89.0002 54.1715 88.6802 55.6915 88.0402C57.2115 87.4002 58.4115 86.2402 59.2915 84.5602C60.1715 82.8802 60.7715 81.3202 61.0915 79.8802ZM122.168 91.0002H107.568C106.115 91.0002 104.812 90.8842 103.703 90.613C102.61 90.3457 101.55 89.8902 100.754 89.0945L100.72 89.0608L100.688 89.0256C99.9524 88.2163 99.5489 87.1469 99.3137 86.0651C99.0725 84.9558 98.968 83.6411 98.968 82.1602V9.08024C98.968 7.59933 99.0725 6.28469 99.3137 5.17538C99.5489 4.09357 99.9524 3.02423 100.688 2.21489L100.72 2.17968L100.754 2.14603C101.55 1.35028 102.61 0.894728 103.703 0.627438C104.812 0.356258 106.115 0.240234 107.568 0.240234H122.168V91.0002ZM159.496 2.24023C162.216 2.24023 164.056 2.68024 165.016 3.56024C166.056 4.44024 166.776 6.28024 167.176 9.08024L175.096 72.9202C175.336 74.8402 175.856 76.0802 176.656 76.6402C177.456 77.2002 178.736 77.5202 180.496 77.6002L180.376 89.0002H175.096C168.056 89.0002 163.416 87.2802 161.176 83.8402C159.976 82.0002 159.136 80.2002 158.656 78.4402C158.176 76.6002 157.736 74.0402 157.336 70.7602L147.976 2.24023H159.496ZM155.353 71.0169C155.352 71.0121 155.351 71.0072 155.351 71.0023L145.684 0.240234H159.496C160.951 0.240234 162.259 0.356609 163.381 0.625078C164.479 0.887526 165.524 1.32483 166.338 2.0591C167.969 3.4612 168.752 5.96703 169.156 8.7974L169.159 8.81568L177.081 72.6722C177.081 72.6724 177.081 72.6719 177.081 72.6722C177.187 73.5229 177.344 74.1206 177.511 74.5168C177.677 74.9149 177.809 75.0056 177.803 75.0018C178.13 75.2309 178.943 75.5276 180.587 75.6023L182.516 75.69L182.447 82.2957L194.475 8.80081C194.804 6.0504 195.537 3.58875 197.171 2.18175C198.799 0.703188 201.337 0.240234 204.136 0.240234H217.903L205.506 73.5083L205.503 73.5226C204.947 76.5403 204.459 78.8358 204.037 80.3658C203.667 82.0029 202.998 83.7129 202.068 85.4883C201.006 87.5146 199.483 89.0367 197.472 89.8835C195.621 90.6628 193.371 91.0002 190.816 91.0002H175.096C167.865 91.0002 162.313 89.2506 159.5 84.9316C158.209 82.952 157.271 80.9631 156.727 78.9665L156.724 78.9558L156.721 78.9451C156.209 76.9812 155.756 74.3244 155.353 71.0169ZM202.096 79.8802C202.496 78.4402 202.976 76.2002 203.536 73.1602L215.536 2.24023H204.136C201.416 2.24023 199.536 2.72023 198.496 3.68024C197.456 4.56023 196.776 6.36024 196.456 9.08024L183.376 89.0002H190.816C193.216 89.0002 195.176 88.6802 196.696 88.0402C198.216 87.4002 199.416 86.2402 200.296 84.5602C201.176 82.8802 201.776 81.3202 202.096 79.8802ZM276.253 15.6402H263.173V91.0002H248.573C247.12 91.0002 245.817 90.8842 244.708 90.613C243.614 90.3457 242.554 89.8902 241.758 89.0945L241.725 89.0608L241.693 89.0256C240.957 88.2163 240.554 87.1469 240.318 86.0651C240.077 84.9558 239.973 83.6411 239.973 82.1602V9.08024C239.973 7.59933 240.077 6.28469 240.318 5.17538C240.554 4.09357 240.957 3.02423 241.693 2.21489L241.725 2.17968L241.758 2.14603C242.554 1.35028 243.614 0.894728 244.708 0.627438C245.817 0.356258 247.12 0.240234 248.573 0.240234H276.253V15.6402ZM277.053 0.240234H291.653C293.104 0.240234 294.401 0.355867 295.498 0.629951C296.558 0.89506 297.612 1.35355 298.38 2.17955C299.163 2.97946 299.607 4.04415 299.868 5.13509C300.137 6.26127 300.253 7.59076 300.253 9.08024V82.0402C300.253 83.5315 300.137 84.8663 299.87 86.006C299.607 87.1306 299.164 88.2054 298.407 89.0317L298.378 89.0637L298.347 89.0945C297.559 89.8822 296.518 90.3404 295.438 90.6105C294.345 90.8837 293.069 91.0002 291.653 91.0002H277.053V50.8002H263.973V35.4002H277.053V0.240234ZM279.053 37.4002H265.973V48.8002H279.053V89.0002H291.653C294.293 89.0002 296.053 88.5602 296.933 87.6802C297.813 86.7202 298.253 84.8402 298.253 82.0402V9.08024C298.253 6.28024 297.813 4.44024 296.933 3.56024C296.133 2.68024 294.373 2.24023 291.653 2.24023H279.053V37.4002ZM353.572 91.0002H350.132C346.845 91.0002 344.008 90.7549 341.658 90.2326L341.65 90.2309L341.642 90.229C339.229 89.6721 337.084 88.5517 335.234 86.8868L335.195 86.8516L335.158 86.8145C333.486 85.1428 332.151 83.2785 331.168 81.2231L331.152 81.1907L331.138 81.1577C330.225 79.0576 329.556 76.0756 329.069 72.3389C328.333 66.6955 327.972 59.1979 327.972 49.8802C327.972 40.5204 328.012 33.9016 328.092 30.0386L328.093 30.0178L328.094 29.997C328.256 26.0999 328.581 22.3194 329.07 18.6559C329.556 14.9275 330.225 11.9695 331.151 9.93263L331.159 9.9149L331.168 9.89733C332.156 7.83132 333.503 5.99366 335.195 4.39024C337.052 2.62535 339.226 1.4805 341.686 1.0018C344.03 0.483717 346.858 0.240234 350.132 0.240234H353.572V91.0002ZM342.092 2.96024C340.012 3.36024 338.172 4.32024 336.572 5.84024C335.052 7.28024 333.852 8.92024 332.972 10.7602C332.172 12.5202 331.532 15.2402 331.052 18.9202C330.572 22.5202 330.252 26.2402 330.092 30.0802C330.012 33.9202 329.972 40.5202 329.972 49.8802C329.972 59.1602 330.332 66.5602 331.052 72.0802C331.532 75.7602 332.172 78.5202 332.972 80.3602C333.852 82.2002 335.052 83.8802 336.572 85.4002C338.172 86.8402 340.012 87.8002 342.092 88.2802C344.125 88.732 346.618 88.9711 349.572 88.9977C349.757 88.9994 349.944 89.0002 350.132 89.0002H351.572V2.24023H350.132C349.944 2.24023 349.757 2.24107 349.572 2.24273C346.618 2.26934 344.125 2.50851 342.092 2.96024ZM354.372 0.240234H371.612C377.615 0.240234 382.482 1.25656 385.921 3.57611C389.709 6.07381 391.372 10.3212 391.372 15.6802V26.4802C391.372 27.4793 391.217 28.5783 390.616 29.4796C389.92 30.5241 388.835 31.0002 387.692 31.0002H372.572C371.938 31.0002 371.316 30.957 370.764 30.8271C370.275 30.7121 369.478 30.4479 368.932 29.7202C368.533 29.1883 368.373 28.5728 368.293 28.1178C368.205 27.6212 368.172 27.0647 368.172 26.4802V17.1202C368.172 16.5728 368.128 16.1917 368.072 15.9435C368.048 15.8379 368.026 15.7738 368.012 15.7406C367.829 15.6916 367.488 15.6402 366.932 15.6402H354.372V0.240234ZM384.812 5.24024C381.852 3.24023 377.452 2.24023 371.612 2.24023H356.372V13.6402H366.932C368.372 13.6402 369.252 13.9202 369.572 14.4802C369.972 14.9602 370.172 15.8402 370.172 17.1202V26.4802C370.172 27.5202 370.292 28.2002 370.532 28.5202C370.772 28.8402 371.452 29.0002 372.572 29.0002H387.692C388.812 29.0002 389.372 28.1602 389.372 26.4802V15.6802C389.372 10.7202 387.852 7.24024 384.812 5.24024ZM354.372 91.0002V75.6002H366.932C367.453 75.6002 367.804 75.5628 368.023 75.5191C368.038 75.4715 368.053 75.414 368.068 75.3454C368.129 75.0646 368.172 74.6646 368.172 74.1202V64.7602C368.172 64.1758 368.205 63.6193 368.293 63.1227C368.373 62.6677 368.533 62.0522 368.932 61.5202C369.478 60.7926 370.275 60.5284 370.764 60.4134C371.316 60.2835 371.938 60.2402 372.572 60.2402H387.692C388.835 60.2402 389.92 60.7164 390.616 61.7608C391.217 62.6621 391.372 63.7612 391.372 64.7602V75.5602C391.372 80.9193 389.709 85.1667 385.921 87.6644C382.482 89.984 377.615 91.0002 371.612 91.0002H354.372ZM384.812 86.0002C387.852 84.0002 389.372 80.5202 389.372 75.5602V64.7602C389.372 63.0802 388.812 62.2402 387.692 62.2402H372.572C371.452 62.2402 370.772 62.4002 370.532 62.7202C370.292 63.0402 370.172 63.7202 370.172 64.7602V74.1202C370.172 75.4002 369.972 76.3202 369.572 76.8802C369.252 77.3602 368.372 77.6002 366.932 77.6002H356.372V89.0002H371.612C377.452 89.0002 381.852 88.0002 384.812 86.0002ZM368.239 75.4596C368.239 75.46 368.234 75.4624 368.223 75.4663C368.234 75.4611 368.24 75.459 368.239 75.4596ZM440.857 91.0002H426.257C424.804 91.0002 423.502 90.8842 422.392 90.613C421.299 90.3457 420.239 89.8902 419.443 89.0945L419.409 89.0608L419.377 89.0256C418.641 88.2163 418.238 87.1469 418.003 86.0651C417.762 84.9558 417.657 83.6411 417.657 82.1602V9.08024C417.657 7.59933 417.762 6.28469 418.003 5.17538C418.238 4.09357 418.641 3.02423 419.377 2.21489L419.409 2.17968L419.443 2.14603C420.239 1.35028 421.299 0.894728 422.392 0.627438C423.502 0.356258 424.804 0.240234 426.257 0.240234H440.857V91.0002ZM477.937 70.2002V82.4002C477.937 83.8531 477.821 85.1558 477.55 86.2652C477.283 87.3586 476.827 88.4187 476.031 89.2144L475.998 89.2481L475.962 89.2801C475.153 90.0159 474.084 90.4194 473.002 90.6546C471.893 90.8957 470.578 91.0002 469.097 91.0002H441.657V70.2002H477.937ZM470.737 34.8002V44.0002C470.737 45.4928 470.665 46.7832 470.504 47.8411C470.353 48.8378 470.089 49.8772 469.536 50.6672L469.507 50.7084L469.476 50.7481C468.759 51.6691 467.647 52.0719 466.716 52.2815C465.712 52.5074 464.487 52.6002 463.097 52.6002H441.657V34.8002H470.737ZM476.737 0.240234V12.4402C476.737 13.8931 476.621 15.1958 476.35 16.3051C476.083 17.3986 475.627 18.4587 474.831 19.2544L474.798 19.2881L474.762 19.3201C473.953 20.0559 472.884 20.4594 471.802 20.6946C470.693 20.9357 469.378 21.0402 467.897 21.0402H441.657V0.240234H476.737ZM120.168 89.0002V2.24023H107.568C104.848 2.24023 103.048 2.68024 102.168 3.56024C101.368 4.44024 100.968 6.28024 100.968 9.08024V82.1602C100.968 84.9602 101.368 86.8002 102.168 87.6802C103.048 88.5602 104.848 89.0002 107.568 89.0002H120.168ZM274.253 13.6402V2.24023H248.573C245.853 2.24023 244.053 2.68024 243.173 3.56024C242.373 4.44024 241.973 6.28024 241.973 9.08024V82.1602C241.973 84.9602 242.373 86.8002 243.173 87.6802C244.053 88.5602 245.853 89.0002 248.573 89.0002H261.173V14.6002C261.173 13.9602 261.813 13.6402 263.093 13.6402H274.253ZM438.857 89.0002V2.24023H426.257C423.537 2.24023 421.737 2.68024 420.857 3.56024C420.057 4.44024 419.657 6.28024 419.657 9.08024V82.1602C419.657 84.9602 420.057 86.8002 420.857 87.6802C421.737 88.5602 423.537 89.0002 426.257 89.0002H438.857ZM475.937 72.2002H443.657V89.0002H469.097C471.897 89.0002 473.737 88.6002 474.617 87.8002C475.497 86.9202 475.937 85.1202 475.937 82.4002V72.2002ZM468.737 36.8002H443.657V50.6002H463.097C465.737 50.6002 467.337 50.2402 467.897 49.5202C468.457 48.7202 468.737 46.8802 468.737 44.0002V36.8002ZM474.737 2.24023H443.657V19.0402H467.897C470.697 19.0402 472.537 18.6402 473.417 17.8402C474.297 16.9602 474.737 15.1602 474.737 12.4402V2.24023Z" fill="#ADC3FC" fill-opacity="0.6"/>
</g>
<path d="M18.4927 2.24023C21.2127 2.24023 23.0527 2.68023 24.0127 3.56024C25.0527 4.44024 25.7727 6.28024 26.1727 9.08024L34.0927 72.9202C34.3327 74.8402 34.8527 76.0802 35.6527 76.6402C36.4527 77.2002 37.7327 77.5202 39.4927 77.6002L39.3727 89.0002H34.0927C27.0527 89.0002 22.4127 87.2802 20.1727 83.8402C18.9727 82.0002 18.1327 80.2002 17.6527 78.4402C17.1727 76.6002 16.7327 74.0402 16.3327 70.7602L6.97266 2.24023H18.4927ZM49.8127 89.0002H42.3727L55.4527 9.08024C55.7727 6.36024 56.4527 4.56024 57.4927 3.68024C58.5327 2.72023 60.4127 2.24023 63.1327 2.24023H74.5327L62.5327 73.1602C61.9727 76.2002 61.4927 78.4402 61.0927 79.8802C60.7727 81.3202 60.1727 82.8802 59.2927 84.5602C58.4127 86.2402 57.2127 87.4002 55.6927 88.0402C54.1727 88.6802 52.2127 89.0002 49.8127 89.0002Z" fill="white"/>
<path d="M120.169 89.0002H107.569C104.849 89.0002 103.049 88.5602 102.169 87.6802C101.369 86.8002 100.969 84.9602 100.969 82.1602V9.08024C100.969 6.28024 101.369 4.44024 102.169 3.56024C103.049 2.68023 104.849 2.24023 107.569 2.24023H120.169V89.0002Z" fill="white"/>
<path d="M159.497 2.24023C162.217 2.24023 164.057 2.68023 165.017 3.56024C166.057 4.44024 166.777 6.28024 167.177 9.08024L175.097 72.9202C175.337 74.8402 175.857 76.0802 176.657 76.6402C177.457 77.2002 178.737 77.5202 180.497 77.6002L180.377 89.0002H175.097C168.057 89.0002 163.417 87.2802 161.177 83.8402C159.977 82.0002 159.137 80.2002 158.657 78.4402C158.177 76.6002 157.737 74.0402 157.337 70.7602L147.977 2.24023H159.497ZM190.817 89.0002H183.377L196.457 9.08024C196.777 6.36024 197.457 4.56024 198.497 3.68024C199.537 2.72023 201.417 2.24023 204.137 2.24023H215.537L203.537 73.1602C202.977 76.2002 202.497 78.4402 202.097 79.8802C201.777 81.3202 201.177 82.8802 200.297 84.5602C199.417 86.2402 198.217 87.4002 196.697 88.0402C195.177 88.6802 193.217 89.0002 190.817 89.0002Z" fill="white"/>
<path d="M274.254 13.6402H263.094C261.814 13.6402 261.174 13.9602 261.174 14.6002V89.0002H248.574C245.854 89.0002 244.054 88.5602 243.174 87.6802C242.374 86.8002 241.974 84.9602 241.974 82.1602V9.08024C241.974 6.28024 242.374 4.44024 243.174 3.56024C244.054 2.68023 245.854 2.24023 248.574 2.24023H274.254V13.6402ZM279.054 2.24023H291.654C294.374 2.24023 296.134 2.68023 296.934 3.56024C297.814 4.44024 298.254 6.28024 298.254 9.08024V82.0402C298.254 84.8402 297.814 86.7202 296.934 87.6802C296.054 88.5602 294.294 89.0002 291.654 89.0002H279.054V48.8002H265.974V37.4002H279.054V2.24023Z" fill="white"/>
<path d="M351.573 89.0002H350.133C346.933 89.0002 344.253 88.7602 342.093 88.2802C340.013 87.8002 338.173 86.8402 336.573 85.4002C335.053 83.8802 333.853 82.2002 332.973 80.3602C332.173 78.5202 331.533 75.7602 331.053 72.0802C330.333 66.5602 329.973 59.1602 329.973 49.8802C329.973 40.5202 330.013 33.9202 330.093 30.0802C330.253 26.2402 330.573 22.5202 331.053 18.9202C331.533 15.2402 332.173 12.5202 332.973 10.7602C333.853 8.92024 335.053 7.28024 336.573 5.84024C338.173 4.32024 340.013 3.36024 342.093 2.96024C344.253 2.48024 346.933 2.24023 350.133 2.24023H351.573V89.0002ZM356.373 2.24023H371.613C377.453 2.24023 381.853 3.24024 384.813 5.24024C387.853 7.24024 389.373 10.7202 389.373 15.6802V26.4802C389.373 28.1602 388.813 29.0002 387.693 29.0002H372.573C371.453 29.0002 370.773 28.8402 370.533 28.5202C370.293 28.2002 370.173 27.5202 370.173 26.4802V17.1202C370.173 15.8402 369.973 14.9602 369.573 14.4802C369.253 13.9202 368.373 13.6402 366.933 13.6402H356.373V2.24023ZM372.573 62.2402H387.693C388.813 62.2402 389.373 63.0802 389.373 64.7602V75.5602C389.373 80.5202 387.853 84.0002 384.813 86.0002C381.853 88.0002 377.453 89.0002 371.613 89.0002H356.373V77.6002H366.933C368.373 77.6002 369.253 77.3602 369.573 76.8802C369.973 76.3202 370.173 75.4002 370.173 74.1202V64.7602C370.173 63.7202 370.293 63.0402 370.533 62.7202C370.773 62.4002 371.453 62.2402 372.573 62.2402Z" fill="white"/>
<path d="M438.858 89.0002H426.258C423.538 89.0002 421.738 88.5602 420.858 87.6802C420.058 86.8002 419.658 84.9602 419.658 82.1602V9.08024C419.658 6.28024 420.058 4.44024 420.858 3.56024C421.738 2.68023 423.538 2.24023 426.258 2.24023H438.858V89.0002ZM475.938 72.2002V82.4002C475.938 85.1202 475.498 86.9202 474.618 87.8002C473.738 88.6002 471.898 89.0002 469.098 89.0002H443.658V72.2002H475.938ZM468.738 36.8002V44.0002C468.738 46.8802 468.458 48.7202 467.898 49.5202C467.338 50.2402 465.738 50.6002 463.098 50.6002H443.658V36.8002H468.738ZM474.738 2.24023V12.4402C474.738 15.1602 474.298 16.9602 473.418 17.8402C472.538 18.6402 470.698 19.0402 467.898 19.0402H443.658V2.24023H474.738Z" fill="white"/>
<defs>
<filter id="filter0_d_2413_81" x="2.97266" y="2.24023" width="476.965" height="94.7598" filterUnits="userSpaceOnUse" color-interpolation-filters="sRGB">
<feFlood flood-opacity="0" result="BackgroundImageFix"/>
<feColorMatrix in="SourceAlpha" type="matrix" values="0 0 0 0 0 0 0 0 0 0 0 0 0 0 0 0 0 0 127 0" result="hardAlpha"/>
<feOffset dy="4"/>
<feGaussianBlur stdDeviation="2"/>
<feColorMatrix type="matrix" values="0 0 0 0 0.0261285 0 0 0 0 0.683239 0 0 0 0 0.895833 0 0 0 0.8 0"/>
<feBlend mode="normal" in2="BackgroundImageFix" result="effect1_dropShadow_2413_81"/>
<feBlend mode="normal" in="SourceGraphic" in2="effect1_dropShadow_2413_81" result="shape"/>
</filter>
<filter id="filter1_d_2413_81" x="0.679688" y="0.240234" width="481.258" height="98.7598" filterUnits="userSpaceOnUse" color-interpolation-filters="sRGB">
<feFlood flood-opacity="0" result="BackgroundImageFix"/>
<feColorMatrix in="SourceAlpha" type="matrix" values="0 0 0 0 0 0 0 0 0 0 0 0 0 0 0 0 0 0 127 0" result="hardAlpha"/>
<feOffset dy="4"/>
<feGaussianBlur stdDeviation="2"/>
<feColorMatrix type="matrix" values="0 0 0 0 0.0261285 0 0 0 0 0.683239 0 0 0 0 0.895833 0 0 0 0.8 0"/>
<feBlend mode="normal" in2="BackgroundImageFix" result="effect1_dropShadow_2413_81"/>
<feBlend mode="normal" in="SourceGraphic" in2="effect1_dropShadow_2413_81" result="shape"/>
</filter>
</defs>
</svg>
